<svg width="50" height="50" viewBox="0 0 50 50" fill="none" xmlns="http://www.w3.org/2000/svg">
<g clip-path="url(#clip0_60_111)">
<path d="M25 50C38.8071 50 50 38.8071 50 25C50 11.1929 38.8071 0 25 0C11.1929 0 0 11.1929 0 25C0 38.8071 11.1929 50 25 50Z" fill="#0A847E"/>
<path d="M28.0744 23.4849H29.8038C30.1292 23.4849 30.3946 23.2195 30.3946 22.8942C30.3946 22.5688 30.1292 22.3034 29.8038 22.3034H28.0744C27.7491 22.3034 27.4836 22.5688 27.4836 22.8942C27.4836 23.2195 27.7491 23.4849 28.0744 23.4849Z" fill="white"/>
<path d="M28.0744 20.4112H29.8038C30.1292 20.4112 30.3946 20.1458 30.3946 19.8205C30.3946 19.4951 30.1292 19.2297 29.8038 19.2297H28.0744C27.7491 19.2297 27.4836 19.4951 27.4836 19.8205C27.4836 20.1458 27.7491 20.4112 28.0744 20.4112Z" fill="white"/>
<path d="M28.0744 17.3376H29.8038C30.1292 17.3376 30.3946 17.0722 30.3946 16.7469C30.3946 16.4215 30.1292 16.1561 29.8038 16.1561H28.0744C27.7491 16.1561 27.4836 16.4215 27.4836 16.7469C27.4836 17.0722 27.7491 17.3376 28.0744 17.3376Z" fill="white"/>
<path d="M24.6155 22.312H15.9597C15.6343 22.312 15.3689 22.5774 15.3689 22.9027C15.3689 23.228 15.6343 23.4935 15.9597 23.4935H24.6155C24.9408 23.4935 25.2062 23.228 25.2062 22.9027C25.1977 22.5774 24.9408 22.312 24.6155 22.312Z" fill="white"/>
<path d="M24.6155 19.2383H15.9597C15.6343 19.2383 15.3689 19.5038 15.3689 19.8291C15.3689 20.1544 15.6343 20.4198 15.9597 20.4198H24.6155C24.9408 20.4198 25.2062 20.1544 25.2062 19.8291C25.2062 19.5038 24.9408 19.2383 24.6155 19.2383Z" fill="white"/>
<path d="M15.9597 17.3376H24.6155C24.9408 17.3376 25.2062 17.0722 25.2062 16.7469C25.2062 16.4215 24.9408 16.1561 24.6155 16.1561H15.9597C15.6343 16.1561 15.3689 16.4215 15.3689 16.7469C15.3689 17.0722 15.6343 17.3376 15.9597 17.3376Z" fill="white"/>
<path d="M36.2935 11.55C36.1907 11.55 36.0794 11.55 35.9767 11.5585C35.9424 11.55 35.8996 11.55 35.8568 11.55H15.5229C13.5281 11.55 11.9099 13.0226 11.9099 14.8291V35.9592C11.9099 36.1733 12.0212 36.3616 12.2096 36.4729C12.3894 36.5757 12.6205 36.5757 12.8003 36.4644L15.0948 35.1031L17.3894 36.4644C17.5777 36.5757 17.8003 36.5757 17.9887 36.4644L20.2832 35.1031L22.5777 36.4644C22.7661 36.5757 22.9887 36.5757 23.177 36.4644L25.4716 35.1031L27.7661 36.4644C27.8603 36.5157 27.963 36.55 28.0657 36.55C28.1685 36.55 28.2712 36.5243 28.3654 36.4644L30.6599 35.1031L32.9544 36.4644C33.1342 36.5757 33.3654 36.5757 33.5452 36.4729C33.725 36.3702 33.8448 36.1733 33.8448 35.9592V14.8291C33.8448 13.6733 34.9407 12.7229 36.2849 12.7229C37.3979 12.7229 38.3311 13.3651 38.6308 14.2383H36.7301C36.4048 14.2383 36.1394 14.5038 36.1394 14.8291C36.1394 15.1544 36.4048 15.4199 36.7301 15.4199H39.3243C39.6496 15.4199 39.915 15.1544 39.915 14.8291C39.915 13.0226 38.2883 11.55 36.2935 11.55ZM32.6805 14.8291V34.9318L30.9681 33.9216C30.7798 33.8103 30.5572 33.8103 30.3688 33.9216L28.0743 35.2829L25.7798 33.9216C25.5914 33.8103 25.3688 33.8103 25.1805 33.9216L22.8859 35.2829L20.5914 33.9216C20.4972 33.8702 20.3945 33.8359 20.2918 33.8359C20.189 33.8359 20.0863 33.8616 19.9921 33.9216L17.6976 35.2829L15.4031 33.9216C15.2147 33.8103 14.9921 33.8103 14.8037 33.9216L13.0914 34.9318V14.8291C13.0914 13.6733 14.1873 12.7229 15.5315 12.7229H33.5281C32.9972 13.2966 32.6805 14.0329 32.6805 14.8291Z" fill="white"/>
<path d="M24.6155 28.6133H15.9597C15.6343 28.6133 15.3689 28.8788 15.3689 29.2041C15.3689 29.5294 15.6343 29.7948 15.9597 29.7948H24.6155C24.9408 29.7948 25.2062 29.5294 25.2062 29.2041C25.1977 28.8788 24.9408 28.6133 24.6155 28.6133Z" fill="white"/>
<path d="M27.0554 30.2058C26.73 30.2058 26.4646 30.4712 26.4646 30.7966C26.4646 31.1219 26.73 31.3873 27.0554 31.3873H27.6119V31.901C27.6119 32.2264 27.8773 32.4918 28.2026 32.4918C28.528 32.4918 28.7934 32.2264 28.7934 31.901V31.3873H29.7523C30.0776 31.3873 30.343 31.1219 30.343 30.7966C30.343 30.4712 30.0776 30.2058 29.7523 30.2058H28.7934V29.7949H29.9321C30.7625 29.7949 31.4475 29.0842 31.4475 28.2024C31.4475 27.3205 30.7711 26.6099 29.9321 26.6099H27.1238C26.7985 26.6099 26.5331 26.8753 26.5331 27.2007C26.5331 27.526 26.7985 27.7914 27.1238 27.7914H27.6204V28.6305H27.0554C26.73 28.6305 26.4646 28.8959 26.4646 29.2212C26.4646 29.5466 26.73 29.812 27.0554 29.812H27.6119V30.2229H27.0554V30.2058ZM28.7848 27.7743H29.9235C30.1033 27.7743 30.2574 27.9712 30.2574 28.1938C30.2574 28.4164 30.1033 28.6133 29.9235 28.6133H28.7848V27.7743Z" fill="white"/>
</g>
<defs>
<clipPath id="clip0_60_111">
<rect width="50" height="50" fill="white"/>
</clipPath>
</defs>
</svg>
