<svg width="50" height="50" viewBox="0 0 50 50" fill="none" xmlns="http://www.w3.org/2000/svg">
<g clip-path="url(#clip0_60_133)">
<path d="M25 50C38.8071 50 50 38.8071 50 25C50 11.1929 38.8071 0 25 0C11.1929 0 0 11.1929 0 25C0 38.8071 11.1929 50 25 50Z" fill="#0A847E"/>
<path d="M28.4302 16.1278C28.4217 16.1278 28.4131 16.1278 28.4131 16.1278C28.1562 16.1278 27.8992 16.1878 27.6509 16.2991C27.4796 15.2542 26.6488 14.7746 25.8694 14.7746H25.8609C25.013 14.7746 24.1479 15.297 23.9253 16.1878C23.7026 16.1021 23.4713 16.0507 23.2401 16.0507C23.2315 16.0507 23.223 16.0507 23.2144 16.0507C22.2637 16.0678 21.2788 16.7616 21.2874 17.9178V18.0463C20.7649 17.875 20.1569 17.9178 19.6601 18.209C19.0349 18.5687 18.6752 19.2196 18.6837 19.999L18.6923 24.1699L18.8722 29.3858C18.9321 31.0302 20.3367 32.3919 22.6406 33.0171C23.4799 33.2484 24.4049 33.3769 25.3299 33.3769C27.3854 33.3769 29.4152 32.7516 30.3487 31.2957L34.3398 26.3282C34.6224 25.9085 34.7166 25.4032 34.6053 24.9151C34.494 24.4097 34.1771 23.9901 33.7317 23.716C33.6375 23.6646 33.5433 23.6389 33.4234 23.6304C32.1044 23.6475 31.188 23.9473 30.717 24.5297L30.3573 24.9664L30.383 17.9863C30.3658 16.8387 29.3809 16.1449 28.4302 16.1278ZM25.8609 15.9565C25.8694 15.9565 25.8694 15.9565 25.8609 15.9565C26.1606 15.9565 26.5032 16.085 26.5118 16.6845L26.546 21.9089V22.0202C26.546 22.0459 26.5546 22.0631 26.5546 22.0887C26.0407 22.0288 25.544 21.9945 25.0558 21.9945L25.0472 17.9521C25.0472 17.9521 25.0472 17.9521 25.0472 17.9435V17.9349V16.6417C25.0387 16.1706 25.5183 15.9565 25.8609 15.9565ZM23.223 17.2326C23.5056 17.2412 23.8482 17.3525 23.8653 17.9606L23.8739 22.0459C23.3943 22.0887 22.9318 22.1658 22.4693 22.2686V19.7506C22.4693 19.7078 22.4607 19.6735 22.4522 19.6307L22.4436 17.9178C22.4607 17.4553 22.9061 17.2326 23.223 17.2326ZM31.6077 25.2833C31.7105 25.1549 32.0787 24.8637 33.235 24.8208C33.3463 24.9151 33.4148 25.0435 33.4491 25.1806C33.4919 25.3518 33.4576 25.5317 33.3891 25.643L29.3895 30.6105C28.3617 32.2121 25.2442 32.5204 22.9489 31.8866C21.1675 31.3984 20.0883 30.4478 20.0455 29.3429L19.8657 24.1442L19.8571 19.999C19.8571 19.5536 20.0712 19.331 20.2511 19.2282C20.4994 19.0911 20.8163 19.074 21.039 19.2025C21.2017 19.2967 21.2788 19.468 21.2959 19.6821V19.7849C21.2959 19.8106 21.3045 19.8277 21.3131 19.8534V22.6112C21.0818 22.6883 20.8506 22.7739 20.6279 22.8681C20.3281 22.9966 20.1911 23.3392 20.3196 23.6389C20.4138 23.8616 20.6279 23.9986 20.8591 23.9986C20.9362 23.9986 21.0133 23.9815 21.0904 23.9558C23.1202 23.0908 25.3384 22.9366 27.8564 23.4848C28.1733 23.5533 28.4902 23.3563 28.5587 23.0394C28.6272 22.7225 28.4302 22.4056 28.1133 22.3371C27.9677 22.3029 27.8307 22.2857 27.6937 22.26C27.7194 22.1915 27.7365 22.123 27.7451 22.0459V21.9603V21.926L27.8136 18.0463C27.8221 17.4467 28.1562 17.3183 28.4302 17.3183H28.4388C28.7557 17.3183 29.2096 17.541 29.2096 18.0034L29.1839 26.097C27.0256 26.3453 25.6125 27.2874 25.0044 28.9233C24.8931 29.2316 25.0472 29.5656 25.347 29.677C25.4155 29.7027 25.484 29.7112 25.5525 29.7112C25.7923 29.7112 26.015 29.5656 26.1007 29.3258C26.5888 28.0154 27.7965 27.3217 29.8006 27.2104C29.8177 27.2104 29.8263 27.2018 29.8434 27.2018C29.8948 27.1932 29.9376 27.1847 29.9804 27.1675C30.0061 27.159 30.0232 27.1504 30.0489 27.1418C30.0918 27.1162 30.1346 27.0819 30.1688 27.0476C30.1774 27.0391 30.1945 27.0305 30.2031 27.0134L30.2117 27.0048L31.6077 25.2833Z" fill="white"/>
<path d="M37.5086 18.8513L30.6142 11.837C30.5028 11.7256 30.3572 11.6657 30.2031 11.6657L20.3709 11.58C20.3709 11.58 20.3709 11.58 20.3624 11.58C20.2082 11.58 20.0626 11.64 19.9513 11.7513L12.9369 18.6458C12.8255 18.7571 12.7656 18.9027 12.7656 19.0569L12.6799 28.889C12.6799 29.0432 12.7399 29.1974 12.8512 29.3087L19.7457 36.3231C19.857 36.4344 20.0026 36.4944 20.1568 36.4944L29.9889 36.58C29.9889 36.58 29.9889 36.58 29.9975 36.58C30.1517 36.58 30.2973 36.5201 30.4086 36.4087L37.423 29.5142C37.5343 29.4029 37.5943 29.2573 37.5943 29.1031L37.6799 19.271C37.6714 19.1168 37.6114 18.9627 37.5086 18.8513ZM36.4124 28.8462L29.7406 35.3981L20.3966 35.3125L13.8447 28.6407L13.9304 19.2967L20.6022 12.7448L29.9461 12.8304L36.498 19.5023L36.4124 28.8462Z" fill="white"/>
</g>
<defs>
<clipPath id="clip0_60_133">
<rect width="50" height="50" fill="white"/>
</clipPath>
</defs>
</svg>
