<svg width="50" height="50" viewBox="0 0 50 50" fill="none" xmlns="http://www.w3.org/2000/svg">
<g clip-path="url(#clip0_60_100)">
<path d="M25 50C38.8071 50 50 38.8071 50 25C50 11.1929 38.8071 0 25 0C11.1929 0 0 11.1929 0 25C0 38.8071 11.1929 50 25 50Z" fill="#0A847E"/>
<path d="M39.1535 13.6068H32.5291V12.0406C32.5291 11.7153 32.2638 11.45 31.9386 11.45H19.5455C19.2203 11.45 18.955 11.7153 18.955 12.0406V13.6068H12.3305C12.0053 13.6068 11.74 13.8721 11.74 14.1974V35.8595C11.74 36.1847 12.0053 36.45 12.3305 36.45H39.1535C39.4788 36.45 39.7441 36.1847 39.7441 35.8595V14.1974C39.7441 13.8721 39.4788 13.6068 39.1535 13.6068ZM20.1275 12.6311H31.3566V15.5496H20.1275V12.6311ZM38.563 35.2689H12.9211V14.7794H18.955V16.1316C18.955 16.4569 19.2203 16.7222 19.5455 16.7222H31.9471C32.2723 16.7222 32.5377 16.4569 32.5377 16.1316V14.7794H38.5716V35.2689H38.563Z" fill="white"/>
<path d="M28.3781 21.2498C28.0529 21.2498 27.7876 21.5151 27.7876 21.8403C27.7876 22.1655 28.0529 22.4309 28.3781 22.4309H35.499C35.8242 22.4309 36.0895 22.1655 36.0895 21.8403C36.0895 21.5151 35.8242 21.2498 35.499 21.2498H28.3781Z" fill="white"/>
<path d="M35.4905 24.1083H28.3696C28.0444 24.1083 27.7791 24.3737 27.7791 24.6989C27.7791 25.0241 28.0444 25.2894 28.3696 25.2894H35.4905C35.8157 25.2894 36.081 25.0241 36.081 24.6989C36.081 24.3737 35.8157 24.1083 35.4905 24.1083Z" fill="white"/>
<path d="M35.4905 26.9755H28.3696C28.0444 26.9755 27.7791 27.2408 27.7791 27.5661C27.7791 27.8913 28.0444 28.1566 28.3696 28.1566H35.4905C35.8157 28.1566 36.081 27.8913 36.081 27.5661C36.081 27.2408 35.8157 26.9755 35.4905 26.9755Z" fill="white"/>
<path d="M32.8629 29.8341H28.3781C28.0529 29.8341 27.7876 30.0994 27.7876 30.4247C27.7876 30.7499 28.0529 31.0152 28.3781 31.0152H32.8629C33.1881 31.0152 33.4535 30.7499 33.4535 30.4247C33.4535 30.0994 33.1881 29.8341 32.8629 29.8341Z" fill="white"/>
<path d="M21.7109 25.9656H21.5311C22.1474 25.3665 22.4469 24.5277 22.4469 23.4322C22.4469 21.9002 21.3685 20.7448 19.9306 20.7448C18.5013 20.7448 17.4144 21.9002 17.4144 23.4322C17.4144 24.5191 17.7311 25.3579 18.3644 25.9656H18.1504C16.6355 25.9656 15.3945 27.198 15.3945 28.7044V30.4161C15.3945 30.7413 15.6599 31.0066 15.9851 31.0066H23.8677C24.1929 31.0066 24.4582 30.7413 24.4582 30.4161V28.7044C24.4582 27.1895 23.2258 25.9656 21.7109 25.9656ZM19.9306 21.9087C20.7095 21.9087 21.2658 22.5421 21.2658 23.4236C21.2658 24.5791 20.8807 25.221 19.9306 25.5975C18.9806 25.1953 18.5869 24.5534 18.5869 23.4236C18.5955 22.5506 19.1604 21.9087 19.9306 21.9087ZM23.2857 29.8341H16.5842V28.7044C16.5842 27.8399 17.2946 27.1381 18.159 27.1381H21.7109C22.5838 27.1381 23.2857 27.8399 23.2857 28.7044V29.8341Z" fill="white"/>
</g>
<defs>
<clipPath id="clip0_60_100">
<rect width="50" height="50" fill="white"/>
</clipPath>
</defs>
</svg>
