<svg width="50" height="50" viewBox="0 0 50 50" fill="none" xmlns="http://www.w3.org/2000/svg">
<g clip-path="url(#clip0_60_148)">
<path d="M25 50C38.8071 50 50 38.8071 50 25C50 11.1929 38.8071 0 25 0C11.1929 0 0 11.1929 0 25C0 38.8071 11.1929 50 25 50Z" fill="#0A847E"/>
<path d="M38.3135 13.3673H33.6575V12.1606C33.6575 11.8353 33.3922 11.57 33.067 11.57C32.7417 11.57 32.4764 11.8353 32.4764 12.1606V13.3673H28.2056V12.1606C28.2056 11.8353 27.9403 11.57 27.6151 11.57C27.2898 11.57 27.0245 11.8353 27.0245 12.1606V13.3673H22.7537V12.1606C22.7537 11.8353 22.4884 11.57 22.1632 11.57C21.8379 11.57 21.5983 11.8353 21.5983 12.1606V13.3673H17.3275V12.1606C17.3275 11.8353 17.0622 11.57 16.7369 11.57C16.4117 11.57 16.1464 11.8353 16.1464 12.1606V13.3673H11.4905C11.1652 13.3673 10.8999 13.6327 10.8999 13.9579V35.9795C10.8999 36.3047 11.1652 36.57 11.4905 36.57H38.3135C38.6387 36.57 38.904 36.3047 38.904 35.9795V13.9579C38.904 13.6327 38.6387 13.3673 38.3135 13.3673ZM37.7315 35.3889H12.081V14.5399H16.1464V15.9093C16.1464 16.2345 16.4117 16.4998 16.7369 16.4998C17.0622 16.4998 17.3275 16.2345 17.3275 15.9093V14.5399H21.5983V15.9093C21.5983 16.2345 21.8636 16.4998 22.1888 16.4998C22.5141 16.4998 22.7794 16.2345 22.7794 15.9093V14.5399H27.0502V15.9093C27.0502 16.2345 27.3155 16.4998 27.6407 16.4998C27.966 16.4998 28.2313 16.2345 28.2313 15.9093V14.5399H32.5021V15.9093C32.5021 16.2345 32.7674 16.4998 33.0926 16.4998C33.4179 16.4998 33.6832 16.2345 33.6832 15.9093V14.5399H37.7486V35.3889H37.7315Z" fill="white"/>
<path d="M16.3091 20.3341C15.9838 20.3341 15.7185 20.5994 15.7185 20.9247V21.8661C15.7185 22.1913 15.9838 22.4567 16.3091 22.4567C16.6343 22.4567 16.8996 22.1913 16.8996 21.8661V20.9247C16.891 20.5994 16.6343 20.3341 16.3091 20.3341Z" fill="white"/>
<path d="M20.614 20.3341C20.2888 20.3341 20.0234 20.5994 20.0234 20.9247V21.8661C20.0234 22.1913 20.2888 22.4567 20.614 22.4567C20.9392 22.4567 21.2045 22.1913 21.2045 21.8661V20.9247C21.196 20.5994 20.9392 20.3341 20.614 20.3341Z" fill="white"/>
<path d="M24.9192 20.3341C24.5939 20.3341 24.3286 20.5994 24.3286 20.9247V21.8661C24.3286 22.1913 24.5939 22.4567 24.9192 22.4567C25.2444 22.4567 25.5097 22.1913 25.5097 21.8661V20.9247C25.5012 20.5994 25.2444 20.3341 24.9192 20.3341Z" fill="white"/>
<path d="M29.2241 22.4481C29.5493 22.4481 29.8146 22.1828 29.8146 21.8576V20.9161C29.8146 20.5909 29.5493 20.3256 29.2241 20.3256C28.8989 20.3256 28.6335 20.5909 28.6335 20.9161V21.8576C28.6335 22.1914 28.8989 22.4481 29.2241 22.4481Z" fill="white"/>
<path d="M16.3091 29.8343C15.9838 29.8343 15.7185 30.0996 15.7185 30.4248V31.3834C15.7185 31.7086 15.9838 31.974 16.3091 31.974C16.6343 31.974 16.8996 31.7086 16.8996 31.3834V30.4248C16.891 30.0996 16.6343 29.8343 16.3091 29.8343Z" fill="white"/>
<path d="M20.614 29.8343C20.2888 29.8343 20.0234 30.0996 20.0234 30.4248V31.3834C20.0234 31.7086 20.2888 31.974 20.614 31.974C20.9392 31.974 21.2045 31.7086 21.2045 31.3834V30.4248C21.196 30.0996 20.9392 29.8343 20.614 29.8343Z" fill="white"/>
<path d="M24.9192 29.8343C24.5939 29.8343 24.3286 30.0996 24.3286 30.4248V31.3834C24.3286 31.7086 24.5939 31.974 24.9192 31.974C25.2444 31.974 25.5097 31.7086 25.5097 31.3834V30.4248C25.5012 30.0996 25.2444 29.8343 24.9192 29.8343Z" fill="white"/>
<path d="M33.5034 20.317C33.1782 20.317 32.9128 20.5823 32.9128 20.9076V21.849C32.9128 22.1743 33.1782 22.4396 33.5034 22.4396C33.8286 22.4396 34.0939 22.1743 34.0939 21.849V20.9076C34.0939 20.5823 33.8286 20.317 33.5034 20.317Z" fill="white"/>
<path d="M16.3091 25.0842C15.9838 25.0842 15.7185 25.3495 15.7185 25.6748V26.6334C15.7185 26.9586 15.9838 27.2239 16.3091 27.2239C16.6343 27.2239 16.8996 26.9586 16.8996 26.6334V25.6748C16.891 25.3495 16.6343 25.0842 16.3091 25.0842Z" fill="white"/>
<path d="M30.1056 23.8689H28.2312C27.478 23.8689 26.8618 24.4851 26.8618 25.2383V27.1041C26.8618 27.8573 27.478 28.4735 28.2312 28.4735H30.1056C30.8587 28.4735 31.475 27.8573 31.475 27.1041V25.2383C31.475 24.4851 30.8587 23.8689 30.1056 23.8689ZM30.3024 27.1041C30.3024 27.2068 30.2168 27.3009 30.1056 27.3009H28.2312C28.1285 27.3009 28.0344 27.2154 28.0344 27.1041V25.2383C28.0344 25.1356 28.1199 25.0414 28.2312 25.0414H30.1056C30.2083 25.0414 30.3024 25.127 30.3024 25.2383V27.1041Z" fill="white"/>
<path d="M33.5034 25.0842C33.1782 25.0842 32.9128 25.3495 32.9128 25.6748V26.6334C32.9128 26.9586 33.1782 27.2239 33.5034 27.2239C33.8286 27.2239 34.0939 26.9586 34.0939 26.6334V25.6748C34.0854 25.3495 33.8286 25.0842 33.5034 25.0842Z" fill="white"/>
<path d="M24.8933 27.2154C25.2185 27.2154 25.4838 26.95 25.4838 26.6248V25.6662C25.4838 25.341 25.2185 25.0757 24.8933 25.0757C24.5681 25.0757 24.3027 25.341 24.3027 25.6662V26.6248C24.3027 26.95 24.5681 27.2154 24.8933 27.2154Z" fill="white"/>
<path d="M20.5884 27.2154C20.9136 27.2154 21.1789 26.95 21.1789 26.6248V25.6662C21.1789 25.341 20.9136 25.0757 20.5884 25.0757C20.2631 25.0757 19.9978 25.341 19.9978 25.6662V26.6248C19.9978 26.95 20.2631 27.2154 20.5884 27.2154Z" fill="white"/>
</g>
<defs>
<clipPath id="clip0_60_148">
<rect width="50" height="50" fill="white"/>
</clipPath>
</defs>
</svg>
