<svg width="50" height="50" viewBox="0 0 50 50" fill="none" xmlns="http://www.w3.org/2000/svg">
<g clip-path="url(#clip0_60_125)">
<path d="M25 50C38.8071 50 50 38.8071 50 25C50 11.1929 38.8071 0 25 0C11.1929 0 0 11.1929 0 25C0 38.8071 11.1929 50 25 50Z" fill="#0A847E"/>
<path d="M35.0558 11.3872C34.8332 11.293 34.5849 11.3444 34.4137 11.5156L11.3335 34.5958C11.1623 34.767 11.1109 35.0153 11.2051 35.2379C11.2992 35.4605 11.5132 35.5974 11.7444 35.5974H34.8246C35.1499 35.5974 35.4153 35.3321 35.4153 35.0067V11.9265C35.4239 11.6868 35.2783 11.4728 35.0558 11.3872ZM13.1655 34.4246L34.2425 13.3476V17.7394H32.068C31.7427 17.7394 31.4773 18.0048 31.4773 18.3301C31.4773 18.6554 31.7427 18.9208 32.068 18.9208H34.251V21.0953H33.0439C32.7186 21.0953 32.4532 21.3606 32.4532 21.686C32.4532 22.0113 32.7186 22.2767 33.0439 22.2767H34.251V24.4511H32.068C31.7427 24.4511 31.4773 24.7165 31.4773 25.0418C31.4773 25.3672 31.7427 25.6325 32.068 25.6325H34.251V27.807H33.0439C32.7186 27.807 32.4532 28.0724 32.4532 28.3977C32.4532 28.723 32.7186 28.9884 33.0439 28.9884H34.251V31.1629H32.068C31.7427 31.1629 31.4773 31.4283 31.4773 31.7536C31.4773 32.0789 31.7427 32.3443 32.068 32.3443H34.251V34.476H13.1655V34.4246Z" fill="white"/>
<path d="M29.8337 23.381C29.6111 23.2869 29.3628 23.3382 29.1916 23.5094L23.3274 29.3737C23.1561 29.5449 23.1048 29.7931 23.199 30.0157C23.2931 30.2383 23.5071 30.3753 23.7383 30.3753H29.6025C29.9278 30.3753 30.1932 30.1099 30.1932 29.7846V23.9204C30.2018 23.6892 30.0562 23.4666 29.8337 23.381ZM29.0289 29.2024H25.168L29.0289 25.3415V29.2024Z" fill="white"/>
<path d="M10.6315 28.8344L14.2613 27.6786C14.3555 27.6529 14.4326 27.6016 14.501 27.5331L14.9462 27.0879L25.673 16.3611C25.7073 16.344 25.7415 16.3269 25.7672 16.3012C25.7929 16.2755 25.81 16.2413 25.8271 16.207L27.8475 14.1866C28.0787 13.9555 28.0787 13.5874 27.8475 13.3562L25.2878 10.7708C25.0567 10.5397 24.6885 10.5397 24.4574 10.7708L11.1024 24.1259C11.0339 24.1943 10.9825 24.2714 10.9568 24.3656L9.80111 28.0039L8.85085 28.9628C8.6197 29.1939 8.6197 29.562 8.85085 29.7932C8.96214 29.9045 9.11624 29.9644 9.26177 29.9644C9.41587 29.9644 9.5614 29.9045 9.68126 29.7932L10.6315 28.8344ZM22.7709 14.1267L24.5173 15.8731L14.5353 25.838L12.7889 24.0916L22.7709 14.1267ZM24.8683 12.0207L26.6147 13.7672L25.3392 15.0427L23.5927 13.2963L24.8683 12.0207ZM12.0013 24.9648L13.6706 26.6342L11.2222 27.4132L12.0013 24.9648Z" fill="white"/>
</g>
<defs>
<clipPath id="clip0_60_125">
<rect width="50" height="50" fill="white"/>
</clipPath>
</defs>
</svg>
