<svg width="50" height="50" viewBox="0 0 50 50" fill="none" xmlns="http://www.w3.org/2000/svg">
<g clip-path="url(#clip0_60_167)">
<path d="M25 50C38.8071 50 50 38.8071 50 25C50 11.1929 38.8071 0 25 0C11.1929 0 0 11.1929 0 25C0 38.8071 11.1929 50 25 50Z" fill="#0A847E"/>
<path d="M26.8 8.59998C19.8 8.59998 14.1 14.3 14.1 21.3C14.1 23.8 14.8 26.2 16.1 28.2L9.1 35.2C8.8 35.5 8.8 35.9 9.1 36.2L11.9 39C12 39.1 12.2 39.2 12.4 39.2C12.6 39.2 12.8 39.1 12.9 39L19.9 32C21.9 33.3 24.2 34 26.8 34C33.8 34 39.5 28.3 39.5 21.3C39.5 14.3 33.8 8.59998 26.8 8.59998ZM12.4 37.5L10.6 35.7L16.8 29.5L18.6 31.3L12.4 37.5ZM26.8 32.6C20.6 32.6 15.5 27.5 15.5 21.3C15.5 15.1 20.6 9.99998 26.8 9.99998C33 9.99998 38.1 15.1 38.1 21.3C38.1 27.5 33 32.6 26.8 32.6Z" fill="white"/>
<path d="M32.6001 17.4L26.0001 24.5L21.6001 20.9C21.3001 20.6 20.8001 20.7 20.6001 21C20.4001 21.3 20.4001 21.8 20.7001 22L25.7001 26.1C25.8001 26.2 26.0001 26.3 26.2001 26.3C26.4001 26.3 26.6001 26.2 26.7001 26.1L33.7001 18.5C34.0001 18.2 34.0001 17.8 33.7001 17.5C33.3001 17.1 32.8001 17.1 32.6001 17.4Z" fill="white"/>
</g>
<defs>
<clipPath id="clip0_60_167">
<rect width="50" height="50" fill="white"/>
</clipPath>
</defs>
</svg>
