<svg width="50" height="50" viewBox="0 0 50 50" fill="none" xmlns="http://www.w3.org/2000/svg">
<g clip-path="url(#clip0_60_140)">
<path d="M25 50C38.8071 50 50 38.8071 50 25C50 11.1929 38.8071 0 25 0C11.1929 0 0 11.1929 0 25C0 38.8071 11.1929 50 25 50Z" fill="#0A847E"/>
<path d="M13.4987 35.7317C12.6254 35.7317 11.7606 35.3978 11.0928 34.7385C9.76563 33.4113 9.76563 31.2537 11.0928 29.9265C11.6921 29.3272 12.4028 29.096 13.0278 28.8905C13.7642 28.6508 14.4063 28.4367 14.8944 27.7089C15.8362 26.3133 15.4595 25.9451 14.9971 25.4742L13.5244 24.0015C13.2932 23.7704 13.2932 23.4022 13.5244 23.171L15.0998 21.5956C15.331 21.3644 15.6992 21.3644 15.9304 21.5956L24.2357 29.9009C24.4668 30.132 24.4668 30.5002 24.2357 30.7314L22.6602 32.3068C22.429 32.538 22.0609 32.538 21.8297 32.3068L20.357 30.8341C19.9118 30.3889 19.4323 30.0892 18.1137 30.9369C17.2233 31.5105 17.2233 31.5105 17.0606 32.1869C16.9921 32.4781 16.8979 32.8634 16.7267 33.3856C16.5554 33.8994 16.2814 34.3532 15.8961 34.7299C15.2368 35.3978 14.3635 35.7317 13.4987 35.7317ZM14.7659 23.5906L15.8276 24.6523C16.7438 25.5684 17.1034 26.5531 15.8704 28.3768C15.1598 29.4385 14.2179 29.7467 13.396 30.0122C12.8223 30.2005 12.3257 30.3632 11.9233 30.7571C11.0585 31.6218 11.0585 33.0346 11.9233 33.9079C12.7881 34.7727 14.2008 34.7727 15.0742 33.9079C15.3225 33.6596 15.5023 33.36 15.6136 33.026C15.7763 32.538 15.8533 32.1869 15.9218 31.913C16.153 30.9626 16.2985 30.7057 17.4716 29.9522C19.0127 28.959 20.1601 28.9761 21.1875 30.0036L22.2492 31.0653L22.9941 30.3204L15.5194 22.8456L14.7659 23.5906ZM25.1347 29.7296C24.9806 29.7296 24.835 29.6697 24.7237 29.5584L16.2814 21.1161C16.0502 20.8849 16.0502 20.5167 16.2814 20.2856C16.5126 20.0544 16.8808 20.0544 17.1119 20.2856L25.5542 28.7278C25.7854 28.959 25.7854 29.3272 25.5542 29.5584C25.4344 29.6697 25.2888 29.7296 25.1347 29.7296Z" fill="white"/>
<path d="M27.6177 28.8905C27.4636 28.8905 27.318 28.8306 27.2067 28.7193L17.9253 19.4379C17.6942 19.2067 17.6942 18.8386 17.9253 18.6074C18.1565 18.3762 18.5247 18.3762 18.7559 18.6074L18.7644 18.616C18.773 18.5988 18.7901 18.5817 18.7987 18.5646L24.2271 12.2714C24.5353 11.2183 25.1261 10.8758 25.5799 10.773C27.0183 10.4477 29.0818 12.0317 32.2584 15.9103C32.344 16.0216 32.4981 16.1843 32.6865 16.3898C34.0992 17.931 35.4692 19.5407 35.4007 20.7479C35.3836 21.1075 35.2294 21.4243 34.964 21.647L27.9944 27.7518C27.9773 27.7689 27.9602 27.786 27.9345 27.7946L28.0201 27.8802C28.2513 28.1114 28.2513 28.4796 28.0201 28.7107C27.9259 28.8306 27.7718 28.8905 27.6177 28.8905ZM19.5864 19.4294L27.1382 26.9812C27.1639 26.9384 27.1981 26.9041 27.241 26.8699L32.9262 21.8867C31.8645 19.6862 31.3422 19.0698 31.1282 18.8985C30.4432 19.3437 29.6041 19.3437 29.0476 18.8814C28.5253 18.4533 28.4054 17.7426 28.7393 17.0833C28.8592 16.8436 28.902 16.6895 28.9191 16.6039C28.5167 16.621 27.2752 17.0833 26.8043 17.7169C26.4618 18.1707 25.9738 18.4276 25.4343 18.4362C25.4258 18.4362 25.4172 18.4362 25.4001 18.4362C24.6809 18.4362 24.0301 18.0166 23.6877 17.5885C23.3794 17.2118 23.2596 16.7751 23.3366 16.3299C23.465 15.6021 24.0815 14.9086 25.2802 14.1465C25.2203 14.001 25.049 13.7612 24.7665 13.4359L19.6806 19.3266C19.6549 19.3694 19.6206 19.4037 19.5864 19.4294ZM31.1025 17.6741C31.1795 17.6741 31.248 17.6827 31.3251 17.6998C32.0101 17.8625 32.7293 18.8215 33.8424 21.0819L34.2105 20.7651C34.2277 20.7479 34.2362 20.7394 34.2448 20.6794C34.2876 19.866 32.5067 17.9139 31.8388 17.1861C31.6333 16.9549 31.4621 16.7751 31.3679 16.6552C27.6434 12.1087 26.2649 11.8262 25.8539 11.9204C25.6826 11.9546 25.5456 12.1173 25.4343 12.3998C26.008 13.0249 26.5474 13.6842 26.4875 14.3263C26.4618 14.6089 26.3162 14.8657 26.0851 15.037C24.7494 15.8675 24.5353 16.3556 24.5096 16.5354C24.4925 16.6124 24.5011 16.7152 24.6124 16.8607C24.7751 17.0577 25.1518 17.2546 25.4172 17.2631C25.597 17.2631 25.7426 17.1775 25.8624 17.0148C26.5817 16.0559 28.6623 15.0284 29.6212 15.6192C29.9551 15.8247 30.4261 16.3641 29.7925 17.6142C29.7068 17.7769 29.7154 17.9053 29.801 17.9824C29.9209 18.0765 30.2206 18.1279 30.5631 17.8711C30.7172 17.7426 30.9055 17.6741 31.1025 17.6741Z" fill="white"/>
<path d="M35.7518 30.7742C34.4504 30.7742 33.3972 29.8666 33.3972 28.7621C33.3972 28.2313 33.6626 27.7175 34.0394 27.0069C34.3819 26.3561 34.8528 25.4657 35.3151 24.1814C35.4179 23.9074 35.6919 23.7447 35.983 23.8046C36.2655 23.8646 36.471 24.1214 36.4539 24.4125C36.3854 25.8167 37.0104 26.7072 37.507 27.4264C37.8324 27.8973 38.115 28.3083 38.115 28.7707C38.115 29.8666 37.0533 30.7742 35.7518 30.7742ZM35.6234 26.476C35.4264 26.8956 35.2381 27.2466 35.0754 27.5548C34.7843 28.1114 34.5702 28.5138 34.5702 28.7621C34.5702 29.2159 35.1096 29.6012 35.7518 29.6012C36.394 29.6012 36.9334 29.2159 36.9334 28.7621C36.9248 28.6508 36.6936 28.3254 36.531 28.0943C36.2484 27.6747 35.8888 27.1439 35.6234 26.476Z" fill="white"/>
</g>
<defs>
<clipPath id="clip0_60_140">
<rect width="50" height="50" fill="white"/>
</clipPath>
</defs>
</svg>
