<svg width="24" height="25" viewBox="0 0 24 25" fill="none" xmlns="http://www.w3.org/2000/svg">
<path d="M20.4492 22.5604C20.6492 22.2604 22.9492 18.5604 22.9492 12.9604C22.9492 7.16035 20.4492 3.36035 20.4492 3.36035" stroke="white" stroke-width="2" stroke-miterlimit="3" stroke-linecap="square"/>
<path d="M17.4492 18.8604C17.5492 18.6604 19.0492 16.3604 19.0492 12.8604C19.0492 9.26035 17.4492 6.86035 17.4492 6.86035" stroke="white" stroke-width="2" stroke-miterlimit="3" stroke-linecap="square"/>
<path d="M14.1484 16.0604C14.2484 15.8604 14.9484 14.6604 14.9484 12.9604C14.9484 11.0604 14.1484 9.86035 14.1484 9.86035" stroke="white" stroke-width="2" stroke-miterlimit="3" stroke-linecap="square"/>
<path d="M2.95 1.95996H8.95V7.95996H5.95C4.65 11.16 4.65 14.76 5.95 17.96H8.95V23.96H2.95C0.35 16.86 0.35 9.05996 2.95 1.95996Z" stroke="white" stroke-width="2" stroke-miterlimit="3" stroke-linecap="square"/>
</svg>
