<svg width="370" height="119" viewBox="0 0 370 119" fill="none" xmlns="http://www.w3.org/2000/svg">
<g clip-path="url(#clip0_129_121)">
<path d="M59.2509 58.8735L25.8701 49.8963L50.2798 25.47L59.2509 58.8735Z" fill="#FFE9C9"/>
<path d="M16.0645 15.6577L25.0355 49.0612L49.4452 24.6349L16.0645 15.6577Z" fill="#0A847E"/>
<path d="M33.3807 84.5524L0 75.784L24.4097 51.3577L33.3807 84.5524Z" fill="#53A9A5"/>
<path d="M84.9124 32.9858L51.7402 24.0086L76.1499 -0.417725L84.9124 32.9858Z" fill="#FFA628"/>
<path d="M68.0131 93.5297L34.6323 84.5525L59.042 60.1262L68.0131 93.5297Z" fill="#0A847E"/>
<path d="M102.646 102.298L69.2651 93.3209L93.6748 68.8945L102.646 102.298Z" fill="#53A9A5"/>
<path d="M93.8832 67.642L60.5024 58.6648L84.9121 34.2385L93.8832 67.642Z" fill="white"/>
<path d="M25.0356 50.5227L34.0067 83.9262L58.4164 59.4999L25.0356 50.5227Z" fill="#FFA628"/>
<path d="M50.9058 24.635L59.8768 58.0385L84.2865 33.6122L50.9058 24.635Z" fill="#0A847E"/>
<path d="M59.668 59.291L68.639 92.6945L93.0487 68.2682L59.668 59.291Z" fill="#FFA628"/>
<path d="M34.0068 85.1787L42.7693 118.582L67.179 94.1559L34.0068 85.1787Z" fill="#53A9A5"/>
<path d="M85.5381 33.6121L94.5092 66.8068L118.919 42.3805L85.5381 33.6121Z" fill="#53A9A5"/>
<path d="M147.709 76.6189H155.637V99.1663L172.119 76.6189H179.63V111.275H171.702V88.7277L155.22 111.275H147.709V76.6189Z" fill="#0A847E"/>
<path d="M183.385 93.9471C183.385 83.5085 191.313 75.9927 202.162 75.9927C208.212 75.9927 213.219 78.0804 216.349 82.0471L211.133 86.8488C208.838 84.1348 205.917 82.8821 202.371 82.8821C195.903 82.8821 191.313 87.4751 191.313 93.9471C191.313 100.419 195.903 105.012 202.371 105.012C205.917 105.012 208.838 103.551 211.133 100.837L216.349 105.638C213.011 109.605 208.004 111.901 201.953 111.901C191.522 111.901 183.385 104.386 183.385 93.9471Z" fill="#0A847E"/>
<path d="M249.729 83.0908H238.672V111.275H230.744V83.0908H219.687V76.6189H249.729V83.0908Z" fill="#0A847E"/>
<path d="M250.564 93.9471C250.564 83.7172 258.492 75.9927 269.549 75.9927C280.398 75.9927 288.535 83.5085 288.535 93.9471C288.535 104.386 280.398 111.901 269.549 111.901C258.701 111.901 250.564 104.177 250.564 93.9471ZM280.398 93.9471C280.398 87.2664 275.808 82.8821 269.549 82.8821C263.29 82.8821 258.701 87.4751 258.701 93.9471C258.701 100.628 263.29 105.012 269.549 105.012C275.808 105.012 280.398 100.419 280.398 93.9471Z" fill="#0A847E"/>
<path d="M306.685 97.2873H301.052V111.275H293.125V76.6189H301.052V90.6066H306.685L315.865 76.6189H324.419L313.153 93.3207L324.836 111.275H315.657L306.685 97.2873Z" fill="#0A847E"/>
<path d="M147.709 6.26294H149.379V19.6243L159.601 6.26294H161.062V22.3384H159.393V9.18575L149.17 22.5471H147.709V6.26294Z" fill="#000A1A"/>
<path d="M167.321 10.2295H168.99V15.6576H176.709V10.2295H178.378V22.3383H176.709V17.119H168.99V22.547H167.321V10.2295Z" fill="#000A1A"/>
<path d="M194.651 17.119H191.939V22.547H190.27V17.119H187.558L183.802 22.547H181.925L186.306 16.2839L182.342 10.4383H184.22L187.766 15.6576H190.479V10.2295H192.148V15.4488H194.86L198.407 10.2295H200.284L196.32 16.0751L200.701 22.3383H198.824L194.651 17.119Z" fill="#000A1A"/>
<path d="M214.262 16.9102H204.04C204.248 19.4155 206.126 21.0857 208.838 21.0857C210.298 21.0857 211.55 20.4593 212.593 19.4155L213.428 20.4593C212.385 21.712 210.716 22.3383 208.838 22.3383C205.083 22.3383 202.579 19.833 202.579 16.0751C202.579 12.526 205.083 10.0208 208.421 10.0208C211.759 10.0208 214.262 12.526 214.262 16.0751C214.471 16.4927 214.262 16.7015 214.262 16.9102ZM204.248 15.6576H212.802C212.593 13.3611 210.924 11.6909 208.421 11.6909C206.126 11.6909 204.457 13.3611 204.248 15.6576Z" fill="#000A1A"/>
<path d="M219.061 10.2295H220.73V15.6576H228.449V10.2295H230.118V22.3383H228.449V17.119H220.73V22.547H219.061V10.2295Z" fill="#000A1A"/>
<path d="M246.391 16.9102H236.168C236.377 19.4155 238.255 21.0857 240.967 21.0857C242.427 21.0857 243.679 20.4593 244.722 19.4155L245.557 20.4593C244.514 21.712 242.845 22.3383 240.967 22.3383C237.212 22.3383 234.708 19.833 234.708 16.0751C234.708 12.526 237.212 10.0208 240.55 10.0208C243.888 10.0208 246.391 12.526 246.391 16.0751C246.391 16.4927 246.391 16.7015 246.391 16.9102ZM236.377 15.6576H244.931C244.722 13.3611 243.053 11.6909 240.55 11.6909C238.255 11.6909 236.586 13.3611 236.377 15.6576Z" fill="#000A1A"/>
<path d="M263.499 16.2839C263.499 20.0418 260.996 22.5471 257.449 22.5471C255.571 22.5471 253.902 21.712 252.859 20.2506V26.9313H251.19V10.2295H252.859V12.526C253.902 10.8558 255.571 10.0208 257.449 10.0208C260.787 10.2295 263.499 12.7348 263.499 16.2839ZM261.83 16.2839C261.83 13.5699 259.952 11.4822 257.24 11.4822C254.737 11.4822 252.65 13.3611 252.65 16.2839C252.65 19.2067 254.528 21.0857 257.24 21.0857C259.952 21.0857 261.83 19.2067 261.83 16.2839Z" fill="#000A1A"/>
<path d="M268.089 10.2295H269.758V15.6576H277.477V10.2295H279.146V22.3383H277.477V17.119H269.758V22.547H268.089V10.2295Z" fill="#000A1A"/>
<path d="M283.736 16.2839C283.736 12.7348 286.449 10.2295 289.995 10.2295C293.542 10.2295 296.045 12.7348 296.045 16.2839C296.045 19.833 293.542 22.547 289.995 22.547C286.24 22.547 283.736 20.0418 283.736 16.2839ZM294.376 16.2839C294.376 13.3611 292.499 11.4821 289.787 11.4821C287.283 11.4821 285.197 13.3611 285.197 16.2839C285.197 19.2067 287.074 21.0856 289.787 21.0856C292.499 21.0856 294.376 19.2067 294.376 16.2839Z" fill="#000A1A"/>
<path d="M299.801 15.449H305.851V16.9104H299.801V15.449Z" fill="#000A1A"/>
<path d="M147.709 35.2822C147.709 30.4805 151.256 27.1401 156.055 27.1401C158.35 27.1401 160.436 27.9752 161.896 29.4366L160.853 30.4805C159.601 29.2279 157.932 28.6015 156.055 28.6015C152.091 28.6015 149.17 31.5243 149.17 35.2822C149.17 39.0401 152.091 41.9629 156.055 41.9629C157.932 41.9629 159.601 41.3366 160.853 40.084L161.896 41.1279C160.436 42.798 158.35 43.4243 156.055 43.4243C151.256 43.4243 147.709 40.084 147.709 35.2822Z" fill="#000A1A"/>
<path d="M174.414 32.7771H169.824V43.4244H168.155V32.7771H163.565V31.3157H174.414V32.7771Z" fill="#000A1A"/>
<path d="M190.27 37.3698C190.27 41.1277 187.767 43.633 184.22 43.633C182.342 43.633 180.673 42.7979 179.63 41.3365V48.0172H177.961V31.3155H179.63V33.612C180.673 31.9418 182.342 31.1067 184.22 31.1067C187.558 31.1067 190.27 33.612 190.27 37.3698ZM188.601 37.3698C188.601 34.6558 186.723 32.5681 184.011 32.5681C181.508 32.5681 179.421 34.447 179.421 37.3698C179.421 40.2927 181.299 42.1716 184.011 42.1716C186.723 41.9628 188.601 40.0839 188.601 37.3698Z" fill="#000A1A"/>
<path d="M193.816 37.3701C193.816 33.8209 196.529 31.3157 200.075 31.3157C203.622 31.3157 206.126 33.8209 206.126 37.3701C206.126 40.9192 203.622 43.6332 200.075 43.6332C196.32 43.4244 193.816 40.9192 193.816 37.3701ZM204.457 37.3701C204.457 34.4473 202.579 32.5683 199.867 32.5683C197.363 32.5683 195.277 34.4473 195.277 37.3701C195.277 40.2929 197.154 42.1718 199.867 42.1718C202.37 41.963 204.457 40.0841 204.457 37.3701Z" fill="#000A1A"/>
<path d="M210.716 31.3157H212.385V40.9192L220.521 31.3157H221.982V43.4244H220.313V33.8209L212.176 43.4244H210.716V31.3157Z" fill="#000A1A"/>
<path d="M236.169 32.7771H231.579V43.4244H229.91V32.7771H225.32V31.3157H236.169V32.7771Z" fill="#000A1A"/>
<path d="M249.729 37.7874H239.506C239.715 40.2927 241.593 41.9629 244.305 41.9629C245.765 41.9629 247.017 41.3365 248.06 40.2927L248.895 41.3365C247.851 42.5892 246.182 43.2155 244.305 43.2155C240.549 43.2155 238.046 40.7102 238.046 36.9523C238.046 33.4032 240.549 30.8979 243.888 30.8979C247.226 30.8979 249.729 33.4032 249.729 36.9523C249.729 37.3699 249.729 37.5787 249.729 37.7874ZM239.506 36.5348H248.06C247.851 34.2383 246.182 32.5681 243.679 32.5681C241.593 32.5681 239.715 34.2383 239.506 36.5348Z" fill="#000A1A"/>
<path d="M264.125 31.3155V43.4242H262.456V32.7769H256.614L256.405 35.6997C256.197 39.8751 255.571 43.633 253.067 43.633C252.65 43.633 252.233 43.633 251.815 43.4242L252.024 41.9628C252.233 41.9628 252.441 41.9628 252.65 41.9628C254.736 41.9628 254.736 38.6225 254.945 35.4909L255.154 31.1067H264.125V31.3155Z" fill="#000A1A"/>
<path d="M279.772 39.4578C279.772 41.963 278.103 43.4244 274.765 43.4244H269.966V31.3157H271.635V35.4911H275.182C278.103 35.4911 279.772 36.9525 279.772 39.4578ZM278.103 39.4578C278.103 37.5788 276.851 36.7437 274.765 36.7437H271.635V42.1718H274.765C277.06 42.1718 278.103 41.3367 278.103 39.4578Z" fill="#000A1A"/>
<path d="M284.153 31.3157H285.822V36.7437H293.542V31.3157H295.211V43.4244H293.542V37.9964H285.822V43.4244H284.153V31.3157Z" fill="#000A1A"/>
<path d="M309.815 35.9085V43.4243H308.146V41.5454C307.311 42.798 306.059 43.6331 303.973 43.6331C301.261 43.6331 299.592 42.1717 299.592 40.084C299.592 38.205 300.844 36.7436 304.182 36.7436H307.937V35.9085C307.937 33.8208 306.685 32.777 304.599 32.777C302.93 32.777 301.469 33.4033 300.635 34.2384L299.8 32.9857C301.052 31.9419 302.721 31.3156 304.808 31.3156C308.146 31.1068 309.815 32.777 309.815 35.9085ZM308.146 39.6664V37.7875H304.39C302.095 37.7875 301.261 38.6226 301.261 39.8752C301.261 41.3366 302.304 42.1717 304.39 42.1717C306.268 42.1717 307.52 41.3366 308.146 39.6664Z" fill="#000A1A"/>
<path d="M324.627 31.3157V43.4244H323.167V39.4578H319.412H318.994L316.282 43.4244H314.613L317.534 39.249C315.656 38.8315 314.613 37.5788 314.613 35.4911C314.613 32.7771 316.7 31.3157 319.829 31.3157H324.627ZM319.412 38.2051H323.167V32.7771H319.62C317.325 32.7771 316.074 33.6122 316.074 35.4911C316.074 37.3701 317.117 38.2051 319.412 38.2051Z" fill="#000A1A"/>
<path d="M152.925 56.9945H149.17V64.3015H147.501V48.2261H149.17V55.5331H152.925L158.35 48.2261H160.227L154.177 56.1594L160.436 64.5103H158.558L152.925 56.9945Z" fill="#000A1A"/>
<path d="M162.731 58.2473C162.731 54.6981 165.443 52.1929 168.99 52.1929C172.537 52.1929 175.04 54.6981 175.04 58.2473C175.04 61.7964 172.537 64.5104 168.99 64.5104C165.235 64.5104 162.731 61.7964 162.731 58.2473ZM173.371 58.2473C173.371 55.3244 171.493 53.4455 168.781 53.4455C166.278 53.4455 164.191 55.3244 164.191 58.2473C164.191 61.1701 166.069 63.049 168.781 63.049C171.493 63.049 173.371 61.1701 173.371 58.2473Z" fill="#000A1A"/>
<path d="M193.191 52.1929V64.3016H191.731V54.6981L186.723 62.8402H185.889L180.882 54.6981V64.3016H179.421V52.1929H181.09L186.306 60.9613L191.522 52.1929H193.191Z" fill="#000A1A"/>
<path d="M209.881 52.1929V64.3016H208.212V53.6543H200.702V64.3016H199.033V52.1929H209.881Z" fill="#000A1A"/>
<path d="M224.694 56.7859V64.3016H223.025V62.4227C222.19 63.6753 220.939 64.5104 218.852 64.5104C216.14 64.5104 214.471 63.049 214.471 60.9613C214.471 59.0823 215.723 57.6209 219.061 57.6209H222.816V56.7859C222.816 54.6981 221.565 53.6543 219.478 53.6543C217.809 53.6543 216.349 54.2806 215.514 55.1157L214.68 53.863C215.932 52.8192 217.601 52.1929 219.687 52.1929C223.025 52.1929 224.694 53.6543 224.694 56.7859ZM223.025 60.7525V58.8736H219.27C216.975 58.8736 216.14 59.7087 216.14 60.9613C216.14 62.4227 217.183 63.2578 219.27 63.2578C221.147 63.049 222.399 62.2139 223.025 60.7525Z" fill="#000A1A"/>
<path d="M230.118 52.1929H231.787V57.6209H239.506V52.1929H241.176V64.3016H239.506V58.8736H231.787V64.3016H230.118V52.1929Z" fill="#000A1A"/>
<path d="M246.809 52.1929H248.478V61.7964L256.614 52.1929H258.075V64.3016H256.406V54.6981L248.269 64.3016H246.809V52.1929Z" fill="#000A1A"/>
<path d="M273.096 52.1929V64.3016H271.635V60.335H267.88H267.463L264.751 64.3016H262.873L265.794 60.1262C263.916 59.7087 262.873 58.456 262.873 56.3683C262.873 53.6543 264.959 52.1929 268.089 52.1929H273.096ZM268.089 59.0823H271.844V53.6543H268.297C266.002 53.6543 264.751 54.4894 264.751 56.3683C264.542 58.2473 265.794 59.0823 268.089 59.0823Z" fill="#000A1A"/>
</g>
<defs>
<clipPath id="clip0_129_121">
<rect width="370" height="119" fill="white"/>
</clipPath>
</defs>
</svg>
