<svg width="259" height="80" viewBox="0 0 259 80" fill="none" xmlns="http://www.w3.org/2000/svg">
<g clip-path="url(#clip0_111_3)">
<path d="M39.8597 39.5789L17.4036 33.5439L33.8246 17.1228L39.8597 39.5789Z" fill="#FFE9C9"/>
<path d="M10.8071 10.5264L16.8422 32.9825L33.2633 16.5615L10.8071 10.5264Z" fill="white"/>
<path d="M22.4561 56.8422L0 50.9474L16.421 34.5264L22.4561 56.8422Z" fill="#9DCECB"/>
<path d="M57.1229 22.1754L34.8071 16.1403L51.2282 -0.280762L57.1229 22.1754Z" fill="#FFA628"/>
<path d="M45.7545 62.877L23.2983 56.842L39.7194 40.4209L45.7545 62.877Z" fill="#53A9A5"/>
<path d="M69.0526 68.7718L46.5964 62.7367L63.0175 46.3157L69.0526 68.7718Z" fill="#9DCECB"/>
<path d="M63.1578 45.4737L40.7017 39.4386L57.1227 23.0176L63.1578 45.4737Z" fill="white"/>
<path d="M16.842 33.9648L22.8771 56.421L39.2982 39.9999L16.842 33.9648Z" fill="#FFA628"/>
<path d="M34.2456 16.5613L40.2807 39.0174L56.7017 22.5964L34.2456 16.5613Z" fill="#53A9A5"/>
<path d="M40.1404 39.8596L46.1755 62.3158L62.5965 45.8947L40.1404 39.8596Z" fill="#FFA628"/>
<path d="M22.8772 57.2632L28.7719 79.7193L45.193 63.2983L22.8772 57.2632Z" fill="#9DCECB"/>
<path d="M57.5439 22.5964L63.579 44.9122L80.0001 28.4912L57.5439 22.5964Z" fill="#9DCECB"/>
<path d="M99.3684 51.5088H104.702V66.6667L115.789 51.5088H120.842V74.807H115.509V59.6491L104.421 74.807H99.3684V51.5088Z" fill="white"/>
<path d="M123.368 63.1578C123.368 56.1403 128.702 51.0876 136 51.0876C140.07 51.0876 143.439 52.4912 145.544 55.1578L142.035 58.3859C140.491 56.5613 138.526 55.7192 136.14 55.7192C131.789 55.7192 128.702 58.8069 128.702 63.1578C128.702 67.5087 131.789 70.5964 136.14 70.5964C138.526 70.5964 140.491 69.614 142.035 67.7894L145.544 71.0175C143.298 73.6841 139.93 75.228 135.86 75.228C128.842 75.228 123.368 70.1754 123.368 63.1578Z" fill="white"/>
<path d="M168 55.8597H160.561V74.807H155.228V55.8597H147.79V51.5088H168V55.8597Z" fill="white"/>
<path d="M168.561 63.1578C168.561 56.2806 173.895 51.0876 181.333 51.0876C188.631 51.0876 194.105 56.1403 194.105 63.1578C194.105 70.1754 188.631 75.228 181.333 75.228C174.035 75.228 168.561 70.035 168.561 63.1578ZM188.631 63.1578C188.631 58.6666 185.544 55.7192 181.333 55.7192C177.123 55.7192 174.035 58.8069 174.035 63.1578C174.035 67.649 177.123 70.5964 181.333 70.5964C185.544 70.5964 188.631 67.5087 188.631 63.1578Z" fill="white"/>
<path d="M206.316 65.4035H202.526V74.807H197.193V51.5088H202.526V60.9123H206.316L212.491 51.5088H218.246L210.667 62.7369L218.526 74.807H212.351L206.316 65.4035Z" fill="white"/>
<path d="M99.3684 4.21045H100.491V13.1929L107.368 4.21045H108.351V15.0175H107.228V6.17536L100.351 15.1578H99.3684V4.21045Z" fill="white"/>
<path d="M112.561 6.8772H113.684V10.5263H118.877V6.8772H120V15.0175H118.877V11.5088H113.684V15.1579H112.561V6.8772Z" fill="white"/>
<path d="M130.947 11.5088H129.123V15.1579H128V11.5088H126.175L123.649 15.1579H122.386L125.333 10.9474L122.667 7.01755H123.93L126.316 10.5263H128.14V6.8772H129.263V10.386H131.088L133.474 6.8772H134.737L132.07 10.807L135.018 15.0175H133.754L130.947 11.5088Z" fill="white"/>
<path d="M144.14 11.3684H137.263C137.404 13.0526 138.667 14.1754 140.491 14.1754C141.474 14.1754 142.316 13.7544 143.018 13.0526L143.579 13.7544C142.877 14.5965 141.754 15.0175 140.491 15.0175C137.965 15.0175 136.281 13.3333 136.281 10.807C136.281 8.42103 137.965 6.73682 140.211 6.73682C142.456 6.73682 144.14 8.42103 144.14 10.807C144.281 11.0877 144.14 11.228 144.14 11.3684ZM137.404 10.5263H143.158C143.018 8.98243 141.895 7.85962 140.211 7.85962C138.667 7.85962 137.544 8.98243 137.404 10.5263Z" fill="white"/>
<path d="M147.368 6.8772H148.491V10.5263H153.684V6.8772H154.807V15.0175H153.684V11.5088H148.491V15.1579H147.368V6.8772Z" fill="white"/>
<path d="M165.754 11.3684H158.877C159.018 13.0526 160.281 14.1754 162.105 14.1754C163.088 14.1754 163.93 13.7544 164.632 13.0526L165.193 13.7544C164.491 14.5965 163.368 15.0175 162.105 15.0175C159.579 15.0175 157.895 13.3333 157.895 10.807C157.895 8.42103 159.579 6.73682 161.825 6.73682C164.07 6.73682 165.754 8.42103 165.754 10.807C165.754 11.0877 165.754 11.228 165.754 11.3684ZM159.018 10.5263H164.772C164.632 8.98243 163.509 7.85962 161.825 7.85962C160.281 7.85962 159.158 8.98243 159.018 10.5263Z" fill="white"/>
<path d="M177.263 10.9473C177.263 13.4737 175.579 15.1579 173.193 15.1579C171.93 15.1579 170.807 14.5965 170.105 13.614V18.1052H168.982V6.87717H170.105V8.42103C170.807 7.29822 171.93 6.73682 173.193 6.73682C175.439 6.87717 177.263 8.56138 177.263 10.9473ZM176.14 10.9473C176.14 9.12278 174.877 7.71927 173.053 7.71927C171.368 7.71927 169.965 8.98243 169.965 10.9473C169.965 12.9123 171.228 14.1754 173.053 14.1754C174.877 14.1754 176.14 12.9123 176.14 10.9473Z" fill="white"/>
<path d="M180.351 6.8772H181.474V10.5263H186.667V6.8772H187.789V15.0175H186.667V11.5088H181.474V15.1579H180.351V6.8772Z" fill="white"/>
<path d="M190.877 10.9474C190.877 8.56141 192.702 6.8772 195.088 6.8772C197.474 6.8772 199.158 8.56141 199.158 10.9474C199.158 13.3333 197.474 15.1579 195.088 15.1579C192.561 15.1579 190.877 13.4737 190.877 10.9474ZM198.035 10.9474C198.035 8.98246 196.772 7.7193 194.947 7.7193C193.263 7.7193 191.86 8.98246 191.86 10.9474C191.86 12.9123 193.123 14.1754 194.947 14.1754C196.772 14.1754 198.035 12.9123 198.035 10.9474Z" fill="white"/>
<path d="M201.684 10.386H205.754V11.3684H201.684V10.386Z" fill="white"/>
<path d="M99.3684 23.7193C99.3684 20.4912 101.754 18.2456 104.982 18.2456C106.526 18.2456 107.93 18.807 108.912 19.7895L108.211 20.4912C107.368 19.6491 106.246 19.2281 104.982 19.2281C102.316 19.2281 100.351 21.193 100.351 23.7193C100.351 26.2456 102.316 28.2105 104.982 28.2105C106.246 28.2105 107.368 27.7895 108.211 26.9474L108.912 27.6491C107.93 28.7719 106.526 29.193 104.982 29.193C101.754 29.193 99.3684 26.9474 99.3684 23.7193Z" fill="white"/>
<path d="M117.333 22.0352H114.246V29.1931H113.123V22.0352H110.035V21.0527H117.333V22.0352Z" fill="white"/>
<path d="M128 25.1229C128 27.6492 126.316 29.3334 123.93 29.3334C122.667 29.3334 121.544 28.772 120.842 27.7895V32.2808H119.719V21.0527H120.842V22.5966C121.544 21.4738 122.667 20.9124 123.93 20.9124C126.175 20.9124 128 22.5966 128 25.1229ZM126.877 25.1229C126.877 23.2983 125.614 21.8948 123.789 21.8948C122.105 21.8948 120.702 23.158 120.702 25.1229C120.702 27.0878 121.965 28.351 123.789 28.351C125.614 28.2106 126.877 26.9474 126.877 25.1229Z" fill="white"/>
<path d="M130.386 25.1229C130.386 22.7369 132.211 21.0527 134.597 21.0527C136.982 21.0527 138.667 22.7369 138.667 25.1229C138.667 27.5089 136.982 29.3334 134.597 29.3334C132.07 29.1931 130.386 27.5089 130.386 25.1229ZM137.544 25.1229C137.544 23.158 136.281 21.8948 134.456 21.8948C132.772 21.8948 131.368 23.158 131.368 25.1229C131.368 27.0878 132.632 28.351 134.456 28.351C136.14 28.2106 137.544 26.9475 137.544 25.1229Z" fill="white"/>
<path d="M141.754 21.0527H142.877V27.5089L148.351 21.0527H149.333V29.1931H148.211V22.7369L142.737 29.1931H141.754V21.0527Z" fill="white"/>
<path d="M158.877 22.0352H155.789V29.1931H154.667V22.0352H151.579V21.0527H158.877V22.0352Z" fill="white"/>
<path d="M168 25.4036H161.123C161.263 27.0878 162.526 28.2106 164.351 28.2106C165.333 28.2106 166.175 27.7895 166.877 27.0878L167.439 27.7895C166.737 28.6316 165.614 29.0527 164.351 29.0527C161.825 29.0527 160.14 27.3685 160.14 24.8421C160.14 22.4562 161.825 20.772 164.07 20.772C166.316 20.772 168 22.4562 168 24.8421C168 25.1229 168 25.2632 168 25.4036ZM161.123 24.5614H166.877C166.737 23.0176 165.614 21.8948 163.93 21.8948C162.526 21.8948 161.263 23.0176 161.123 24.5614Z" fill="white"/>
<path d="M177.684 21.0527V29.1931H176.561V22.0352H172.632L172.491 24.0001C172.351 26.8071 171.93 29.3334 170.246 29.3334C169.965 29.3334 169.684 29.3334 169.404 29.1931L169.544 28.2106C169.684 28.2106 169.825 28.2106 169.965 28.2106C171.368 28.2106 171.368 25.965 171.509 23.8597L171.649 20.9124H177.684V21.0527Z" fill="white"/>
<path d="M188.21 26.5264C188.21 28.2106 187.088 29.1931 184.842 29.1931H181.614V21.0527H182.737V23.8598H185.123C187.088 23.8598 188.21 24.8422 188.21 26.5264ZM187.088 26.5264C187.088 25.2633 186.246 24.7019 184.842 24.7019H182.737V28.351H184.842C186.386 28.351 187.088 27.7896 187.088 26.5264Z" fill="white"/>
<path d="M191.158 21.0527H192.281V24.7019H197.474V21.0527H198.597V29.1931H197.474V25.544H192.281V29.1931H191.158V21.0527Z" fill="white"/>
<path d="M208.421 24.1402V29.1929H207.298V27.9297C206.737 28.7718 205.895 29.3332 204.491 29.3332C202.667 29.3332 201.544 28.3508 201.544 26.9473C201.544 25.6841 202.386 24.7016 204.632 24.7016H207.158V24.1402C207.158 22.7367 206.316 22.035 204.912 22.035C203.79 22.035 202.807 22.456 202.246 23.0174L201.684 22.1753C202.526 21.4736 203.649 21.0525 205.053 21.0525C207.298 20.9122 208.421 22.035 208.421 24.1402ZM207.298 26.6666V25.4034H204.772C203.228 25.4034 202.667 25.9648 202.667 26.8069C202.667 27.7894 203.369 28.3508 204.772 28.3508C206.035 28.3508 206.877 27.7894 207.298 26.6666Z" fill="white"/>
<path d="M218.386 21.0527V29.1931H217.404V26.5264H214.877H214.597L212.772 29.1931H211.649L213.614 26.3861C212.351 26.1054 211.649 25.2633 211.649 23.8598C211.649 22.0352 213.053 21.0527 215.158 21.0527H218.386ZM214.877 25.6843H217.404V22.0352H215.018C213.474 22.0352 212.632 22.5966 212.632 23.8598C212.632 25.1229 213.333 25.6843 214.877 25.6843Z" fill="white"/>
<path d="M102.877 38.3156H100.351V43.2279H99.228V32.4209H100.351V37.3332H102.877L106.526 32.4209H107.789L103.719 37.7542L107.93 43.3683H106.667L102.877 38.3156Z" fill="white"/>
<path d="M109.474 39.1578C109.474 36.7719 111.298 35.0876 113.684 35.0876C116.07 35.0876 117.754 36.7719 117.754 39.1578C117.754 41.5438 116.07 43.3683 113.684 43.3683C111.158 43.3683 109.474 41.5438 109.474 39.1578ZM116.632 39.1578C116.632 37.1929 115.368 35.9298 113.544 35.9298C111.86 35.9298 110.456 37.1929 110.456 39.1578C110.456 41.1227 111.719 42.3859 113.544 42.3859C115.368 42.3859 116.632 41.1227 116.632 39.1578Z" fill="white"/>
<path d="M129.965 35.0876V43.228H128.982V36.7719L125.614 42.2455H125.053L121.684 36.7719V43.228H120.702V35.0876H121.824L125.333 40.9824L128.842 35.0876H129.965Z" fill="white"/>
<path d="M141.193 35.0876V43.228H140.07V36.0701H135.018V43.228H133.895V35.0876H141.193Z" fill="white"/>
<path d="M151.158 38.1754V43.228H150.035V41.9648C149.474 42.8069 148.632 43.3683 147.228 43.3683C145.404 43.3683 144.281 42.3859 144.281 40.9824C144.281 39.7192 145.123 38.7368 147.368 38.7368H149.895V38.1754C149.895 36.7719 149.053 36.0701 147.649 36.0701C146.526 36.0701 145.544 36.4912 144.983 37.0526L144.421 36.2105C145.263 35.5087 146.386 35.0876 147.79 35.0876C150.035 35.0876 151.158 36.0701 151.158 38.1754ZM150.035 40.842V39.5789H147.509C145.965 39.5789 145.404 40.1403 145.404 40.9824C145.404 41.9648 146.105 42.5262 147.509 42.5262C148.772 42.3859 149.614 41.8245 150.035 40.842Z" fill="white"/>
<path d="M154.807 35.0876H155.93V38.7368H161.123V35.0876H162.245V43.228H161.123V39.5789H155.93V43.228H154.807V35.0876Z" fill="white"/>
<path d="M166.035 35.0876H167.158V41.5438L172.632 35.0876H173.614V43.228H172.491V36.7719L167.018 43.228H166.035V35.0876Z" fill="white"/>
<path d="M183.719 35.0876V43.228H182.737V40.5613H180.21H179.93L178.105 43.228H176.842L178.807 40.421C177.544 40.1403 176.842 39.2982 176.842 37.8947C176.842 36.0701 178.246 35.0876 180.351 35.0876H183.719ZM180.351 39.7192H182.877V36.0701H180.491C178.947 36.0701 178.105 36.6315 178.105 37.8947C177.965 39.1578 178.807 39.7192 180.351 39.7192Z" fill="white"/>
</g>
<defs>
<clipPath id="clip0_111_3">
<rect width="259" height="80" fill="white"/>
</clipPath>
</defs>
</svg>
