<svg width="18" height="16" viewBox="0 0 18 16" fill="none" xmlns="http://www.w3.org/2000/svg">
<path d="M16.667 0.00299487C16.445 0.0189949 16.227 0.0699948 16.021 0.154995H16.019C15.821 0.232995 14.883 0.622995 13.456 1.215L8.34505 3.34599C4.67705 4.87399 1.07005 6.379 1.07005 6.379L1.11305 6.362C1.11305 6.362 0.864046 6.443 0.605046 6.619C0.445046 6.72 0.306045 6.853 0.199045 7.009C0.0464126 7.2313 -0.0216876 7.50087 0.00704556 7.76899C0.0690456 8.26299 0.393046 8.55999 0.627046 8.72399C0.862046 8.88999 1.08605 8.96699 1.08605 8.96699H1.09105L4.47305 10.095C4.62405 10.576 5.50305 13.435 5.71405 14.094C5.83905 14.487 5.96005 14.733 6.11205 14.921C6.18505 15.017 6.27205 15.097 6.37405 15.161C6.42805 15.192 6.48505 15.217 6.54405 15.234L6.51005 15.226C6.52005 15.228 6.52905 15.236 6.53605 15.239C6.56405 15.247 6.58305 15.249 6.61805 15.255C7.15305 15.415 7.58305 15.087 7.58305 15.087L7.60805 15.067L9.60405 13.269L12.95 15.809L13.026 15.841C13.723 16.144 14.43 15.975 14.803 15.678C15.179 15.378 15.325 14.995 15.325 14.995L15.349 14.934L17.935 1.82499C18.008 1.50199 18.027 1.19899 17.946 0.904995C17.869 0.630364 17.6996 0.390697 17.4664 0.226391C17.2333 0.0620851 16.9516 -0.0168133 16.667 0.00299487ZM16.597 1.407C16.595 1.451 16.603 1.44599 16.584 1.52899V1.53599L14.022 14.508C14.012 14.527 13.992 14.568 13.942 14.608C13.887 14.65 13.844 14.677 13.619 14.588L9.52705 11.484L7.05505 13.714L7.57405 10.431L14.26 4.26399C14.536 4.00999 14.444 3.95699 14.444 3.95699C14.464 3.64499 14.028 3.86499 14.028 3.86499L5.59605 9.035L5.59305 9.021L1.55305 7.674V7.671L1.54205 7.669C1.54887 7.66674 1.55555 7.66407 1.56205 7.661L1.58505 7.65099L1.60605 7.643L8.88305 4.61L13.993 2.478C14.836 2.127 15.681 1.77799 16.527 1.42999C16.584 1.40799 16.557 1.407 16.597 1.407Z" fill="white"/>
</svg>
