<svg width="18" height="18" viewBox="0 0 18 18" fill="none" xmlns="http://www.w3.org/2000/svg">
<path d="M14.1496 3.33312L14.1534 3.33689C14.9088 4.07948 15.5103 4.96381 15.9234 5.93922C16.3365 6.91463 16.5531 7.96196 16.5609 9.02122C16.5414 11.144 15.6842 13.1731 14.176 14.6669C12.6666 16.1616 10.6282 17.0001 8.5039 17C7.16838 16.9901 5.85684 16.6442 4.69017 15.9941L4.54135 15.9112L4.37652 15.9545L0.632496 16.9341L1.62714 13.2871L1.67423 13.1175L1.58569 12.964C0.532909 11.1293 0.251064 8.95191 0.802021 6.90967C1.35298 4.86742 2.69172 3.1272 4.5244 2.07098C5.73736 1.37095 7.11285 1.00166 8.51332 1.00005H8.51426C9.5613 0.996266 10.5986 1.20056 11.5661 1.60108C12.5335 2.00159 13.4117 2.59034 14.1496 3.33312ZM8.51332 16.3972C10.4867 16.397 12.3803 15.6178 13.7823 14.2289C15.1841 12.8409 15.9806 10.9552 15.9985 8.9826V8.97318C15.9702 7.00011 15.1623 5.11842 13.7512 3.73908C12.7866 2.78698 11.5798 2.11711 10.2615 1.80209C8.94331 1.48707 7.564 1.53893 6.27316 1.95203C4.98231 2.36514 3.82918 3.12373 2.93879 4.14557C2.04839 5.1674 1.45472 6.41349 1.22212 7.74872C0.911297 9.53832 1.26922 11.3778 2.22524 12.9216L2.22901 12.9273L2.29682 13.0337L1.64692 15.427L1.45383 16.1363L2.16402 15.9479L4.62707 15.2952L4.72597 15.3573L4.73538 15.363C5.87926 16.0391 7.18361 16.396 8.51238 16.3962L8.51332 16.3972ZM10.0863 11.2582C10.3199 11.0011 10.5412 10.7326 10.7475 10.4529L10.7757 10.4623L10.7805 10.4642L10.7965 10.4699L10.8492 10.4925C10.8916 10.5113 10.9443 10.5339 11.0065 10.5631C11.129 10.6196 11.2797 10.6912 11.4332 10.7647C11.7384 10.9125 12.0464 11.0651 12.1509 11.1169L12.2696 11.1753C12.28 11.18 12.2913 11.1847 12.3007 11.1904L12.3854 11.2328C12.3952 11.4282 12.3597 11.6232 12.2818 11.8026C12.161 11.9996 12.0011 12.1698 11.8121 12.3028C11.6231 12.4358 11.4089 12.5287 11.1826 12.5759C10.4027 12.6617 9.61589 12.4946 8.93811 12.0993L8.92775 12.0927L8.91551 12.0871C7.52885 11.3876 6.34652 10.3415 5.48325 9.05042L5.47383 9.03629L5.46253 9.0231C5.02127 8.46706 4.7542 7.793 4.69488 7.08563C4.68149 6.81574 4.72561 6.54609 4.82434 6.29456C4.92308 6.04302 5.07415 5.81535 5.26756 5.62663L5.28263 5.61251L5.29581 5.59555C5.32536 5.56054 5.36211 5.53232 5.40356 5.51281C5.44501 5.4933 5.49019 5.48297 5.53599 5.48252H5.93347L5.98622 5.48347C6.0038 5.51439 6.01922 5.54649 6.03237 5.57954C6.08889 5.72082 6.18308 5.93275 6.27821 6.15221L6.42232 6.48187C6.49202 6.64294 6.55512 6.79081 6.60033 6.90384C6.622 6.95753 6.63801 6.99803 6.64743 7.02723V7.07998L6.68981 7.16192C6.54288 7.45014 6.39877 7.5999 6.27256 7.73271L6.21887 7.78922L6.21604 7.79205C6.15576 7.85704 6.0352 7.98514 5.98999 8.16504C5.96961 8.25689 5.96787 8.3519 5.98485 8.44444C6.00184 8.53698 6.03722 8.62517 6.08889 8.7038C6.76383 9.90405 7.82662 10.8393 9.10295 11.3562C9.22539 11.4409 9.38834 11.5238 9.57954 11.521C9.6783 11.5175 9.77502 11.4919 9.86268 11.4463C9.95033 11.4007 10.0267 11.3371 10.0863 11.2582Z" fill="white" stroke="white" stroke-width="0.9"/>
</svg>
